<?xml version="1.0" standalone="no"?>
<!DOCTYPE svg PUBLIC "-//W3C//DTD SVG 20010904//EN"
 "http://www.w3.org/TR/2001/REC-SVG-20010904/DTD/svg10.dtd">
<svg version="1.0" xmlns="http://www.w3.org/2000/svg"
 width="300.000000pt" height="80.000000pt" viewBox="0 0 300.000000 80.000000"
 preserveAspectRatio="xMidYMid meet">
<metadata>
Created by potrace 1.10, written by Peter Selinger 2001-2011
</metadata>
<g transform="translate(0.000000,80.000000) scale(0.100000,-0.100000)"
fill="black" stroke="none">
<path d="M789 673 c0 -71 -1 -249 -2 -396 -1 -148 1 -271 6 -274 4 -2 7 176 7
396 0 221 -2 401 -5 401 -3 0 -5 -57 -6 -127z"/>
<path d="M353 703 c-14 -3 -23 -12 -23 -23 0 -17 3 -18 28 -9 15 6 46 8 70 4
33 -5 42 -3 42 8 0 21 -58 31 -117 20z"/>
<path d="M213 634 c-34 -26 -79 -91 -70 -101 3 -3 31 21 62 52 58 60 64 93 8
49z"/>
<path d="M348 653 c-10 -2 -18 -10 -18 -17 0 -9 18 -12 68 -10 84 3 81 2 58
19 -19 14 -71 18 -108 8z"/>
<path d="M540 647 c0 -7 13 -23 30 -35 16 -12 37 -36 46 -53 11 -22 19 -28 26
-21 13 13 -22 72 -59 102 -30 23 -43 25 -43 7z"/>
<path d="M221 575 c-22 -24 -41 -51 -41 -60 0 -23 15 -18 30 10 8 14 29 37 47
51 35 26 42 44 19 44 -7 0 -32 -20 -55 -45z"/>
<path d="M510 607 c0 -7 14 -23 31 -36 16 -12 35 -33 41 -47 13 -29 28 -31 28
-4 0 21 -70 100 -88 100 -7 0 -12 -6 -12 -13z"/>
<path d="M343 567 c7 -5 3 -7 -11 -4 -14 3 -20 1 -15 -6 4 -6 0 -8 -9 -4 -10
3 -26 -5 -41 -21 -43 -45 -73 -135 -47 -144 5 -1 11 -19 12 -40 2 -20 6 -34
11 -31 7 4 11 -12 8 -30 -1 -5 3 -6 8 -3 5 3 15 -1 22 -10 36 -43 136 -58 193
-29 15 8 32 13 36 10 5 -3 19 8 33 24 14 17 28 27 32 23 5 -4 5 -1 1 6 -4 7
-12 10 -17 7 -5 -3 -6 1 -3 9 3 9 10 14 15 11 12 -8 22 59 15 99 -8 41 -41 92
-77 119 -21 15 -45 20 -102 21 -43 0 -70 -3 -64 -7z m96 -18 c35 -12 42 -46
15 -73 -22 -22 -41 -20 -21 2 23 25 21 42 -3 42 -19 0 -20 -7 -19 -121 0 -79
-4 -125 -12 -135 -15 -18 -65 -18 -72 0 -8 20 18 40 43 33 19 -5 20 0 20 129
0 74 4 134 9 134 4 0 22 -5 40 -11z m-73 -34 c4 -8 3 -26 0 -40 -7 -27 -33
-33 -67 -15 -25 14 -24 34 4 53 28 20 56 21 63 2z m-69 -72 c3 -7 -4 -9 -16
-6 -27 7 -27 -8 -1 -25 23 -14 26 -35 6 -51 -17 -15 -46 -4 -45 18 0 10 2 11
6 4 5 -14 33 -18 33 -5 0 4 -9 15 -20 25 -25 21 -25 33 -2 46 20 12 34 10 39
-6z m78 -24 c4 -5 4 -21 1 -35 -9 -35 -59 -31 -64 5 -5 34 46 59 63 30z m83
-27 c2 -23 -1 -32 -11 -32 -10 0 -13 7 -10 20 3 11 -1 27 -8 36 -12 14 -11 16
6 13 14 -3 21 -14 23 -37z m34 3 c3 -23 0 -35 -8 -35 -7 0 -11 13 -9 33 4 51
11 52 17 2z m68 25 c0 -6 -8 -10 -17 -8 -27 5 -28 -31 -1 -41 23 -10 23 -10
-3 -10 -31 -1 -44 21 -29 50 11 20 50 27 50 9z m-200 -87 c0 -5 -18 -9 -40
-11 -22 -1 -40 2 -40 8 0 5 18 10 40 10 22 0 40 -3 40 -7z m131 -43 c-27 -23
-51 -26 -51 -7 0 21 11 27 44 27 l31 -1 -24 -19z"/>
<path d="M330 396 c0 -17 5 -26 16 -26 10 0 14 7 12 22 -5 32 -28 35 -28 4z"/>
<path d="M1144 531 c-40 -25 -59 -75 -43 -118 11 -34 49 -57 112 -68 83 -16
113 -80 61 -132 -21 -21 -32 -24 -62 -19 -42 6 -82 33 -98 65 -19 38 -23 34
-21 -20 l2 -54 87 -3 c83 -3 88 -2 118 25 44 40 52 101 17 136 -13 14 -44 31
-68 37 -79 21 -108 38 -115 67 -12 45 14 77 65 81 50 4 83 -14 111 -61 l20
-32 0 50 c0 48 -1 50 -27 51 -16 0 -50 4 -78 8 -41 6 -56 3 -81 -13z"/>
<path d="M1527 536 c-49 -18 -72 -39 -97 -90 -23 -49 -26 -125 -6 -164 19 -36
65 -78 99 -91 43 -16 118 -13 156 7 59 29 94 84 99 150 7 94 -37 160 -127 190
-44 15 -77 14 -124 -2z m113 -28 c115 -59 146 -243 49 -293 -39 -21 -107 -19
-149 4 -110 58 -129 243 -31 296 38 21 81 18 131 -7z"/>
<path d="M1862 363 l2 -188 6 149 5 149 130 -147 130 -146 6 62 c11 102 10
296 -1 303 -6 4 -10 -48 -12 -139 l-3 -145 -129 145 c-71 79 -131 144 -133
144 -1 0 -2 -84 -1 -187z"/>
<path d="M2216 538 c3 -5 12 -8 20 -8 12 0 14 -28 14 -165 0 -162 0 -166 -22
-175 -17 -6 -5 -9 47 -9 52 0 64 3 48 9 -23 9 -23 13 -23 168 0 150 1 160 21
173 18 13 14 14 -45 14 -35 0 -62 -3 -60 -7z"/>
<path d="M2501 528 c-144 -75 -150 -257 -10 -328 74 -38 219 -11 219 41 0 20
-2 19 -35 -10 -63 -55 -129 -54 -184 3 -71 73 -73 194 -4 262 29 29 41 34 81
34 56 0 108 -28 123 -66 13 -37 18 -27 12 26 -4 37 -9 45 -27 46 -11 1 -46 4
-76 8 -47 6 -62 4 -99 -16z"/>
<path d="M646 482 c-3 -5 -1 -24 5 -41 7 -19 9 -54 5 -84 -6 -49 -5 -51 10
-32 11 15 15 36 12 82 -4 61 -19 96 -32 75z"/>
<path d="M124 467 c-9 -23 0 -150 11 -154 6 -2 10 29 10 82 0 78 -8 105 -21
72z"/>
<path d="M88 454 c-11 -11 -10 -112 1 -119 5 -3 11 -2 14 2 7 14 -8 125 -15
117z"/>
<path d="M156 435 c-7 -29 3 -105 14 -105 4 0 7 29 7 65 -1 67 -10 84 -21 40z"/>
<path d="M619 456 c-8 -9 3 -126 12 -120 11 7 12 124 1 124 -5 0 -11 -2 -13
-4z"/>
<path d="M690 390 c0 -33 4 -60 10 -60 13 0 24 64 16 95 -12 46 -26 26 -26
-35z"/>
<path d="M201 340 c-1 -24 47 -92 86 -122 32 -25 45 -28 107 -28 60 0 77 4
109 25 48 34 47 40 -3 14 -106 -56 -235 -17 -280 85 -10 22 -19 34 -19 26z"/>
<path d="M186 282 c-8 -13 18 -54 58 -91 21 -20 29 -22 39 -12 9 10 8 14 -7
23 -23 13 -47 37 -67 68 -11 16 -18 20 -23 12z"/>
<path d="M558 238 c-46 -47 -58 -68 -40 -68 16 0 94 88 90 102 -2 10 -18 -1
-50 -34z"/>
<path d="M150 241 c0 -30 73 -106 94 -98 15 6 11 14 -28 52 -25 24 -46 49 -46
55 0 5 -4 10 -10 10 -5 0 -10 -8 -10 -19z"/>
<path d="M611 226 c-12 -19 -33 -41 -46 -50 -24 -16 -35 -46 -16 -46 14 0 101
98 101 115 0 25 -17 17 -39 -19z"/>
<path d="M335 161 c-13 -12 13 -21 66 -21 41 0 59 4 59 13 0 8 -18 12 -61 12
-33 0 -62 -1 -64 -4z"/>
<path d="M330 109 c0 -34 131 -32 138 2 2 11 -12 14 -68 14 -58 0 -70 -3 -70
-16z"/>
</g>
</svg>
